<?xml version="1.0" encoding="utf-8"?>
<!-- Svg Vector Icons : http://www.sfont.cn -->
<!DOCTYPE svg PUBLIC "-//W3C//DTD SVG 1.1//EN" "http://www.w3.org/Graphics/SVG/1.1/DTD/svg11.dtd">
<svg version="1.1" xmlns="http://www.w3.org/2000/svg" xmlns:xlink="http://www.w3.org/1999/xlink" x="0px" y="0px" viewBox="0 0 1000 1000" enable-background="new 0 0 1000 1000" xml:space="preserve">
<metadata> Svg Vector Icons : http://www.sfont.cn </metadata>
<g><path d="M736.5,111.4h-16.9H280.4h-16.9V821h16.9h439.3h16.9V111.4z M500,956.2c28,0,50.7-22.7,50.7-50.7c0-28-22.7-50.7-50.7-50.7c-28,0-50.7,22.7-50.7,50.7C449.3,933.5,472,956.2,500,956.2z M736.5,990H263.5c-28,0-50.7-22.7-50.7-50.7V60.7c0-28,22.7-50.7,50.7-50.7h473.1c28,0,50.7,22.7,50.7,50.7v878.6C787.3,967.3,764.5,990,736.5,990z"/><path d="M736.5,111.4h-16.9H280.4h-16.9V821h16.9h439.3h16.9V111.4z M500,956.2c28,0,50.7-22.7,50.7-50.7c0-28-22.7-50.7-50.7-50.7c-28,0-50.7,22.7-50.7,50.7C449.3,933.5,472,956.2,500,956.2z M736.5,990H263.5c-28,0-50.7-22.7-50.7-50.7V60.7c0-28,22.7-50.7,50.7-50.7h473.1c28,0,50.7,22.7,50.7,50.7v878.6C787.3,967.3,764.5,990,736.5,990z"/></g>
</svg>
