<?xml version="1.0" encoding="utf-8"?>
<!-- Svg Vector Icons : http://www.sfont.cn -->
<!DOCTYPE svg PUBLIC "-//W3C//DTD SVG 1.1//EN" "http://www.w3.org/Graphics/SVG/1.1/DTD/svg11.dtd">
<svg version="1.1" xmlns="http://www.w3.org/2000/svg" xmlns:xlink="http://www.w3.org/1999/xlink" x="0px" y="0px" viewBox="0 0 1000 1000" enable-background="new 0 0 1000 1000" xml:space="preserve">
<metadata> Svg Vector Icons : http://www.sfont.cn </metadata>
<g><path d="M349.2,308.4c0-55.7,14.7-185.3,150.8-185.3c131.2,0,150.8,116.1,150.8,185.3v40.8h113.1v-40.8C763.8,127.1,660.3,10,500,10c-160.3,0-263.9,117.1-263.9,298.4v40.8h113.1V308.4z"/><path d="M763.9,386.9H236.1c-62.4,0-113.1,50.7-113.1,113.1v376.9c0,62.4,50.7,113.1,113.1,113.1h527.7c62.4,0,113.1-50.6,113.1-113.1V500C876.9,437.6,826.3,386.9,763.9,386.9z M537.7,715.7v85.8c0,20.8-16.9,37.7-37.7,37.7c-20.8,0-37.7-16.9-37.7-37.7v-85.8c-22.5-13.1-37.7-37.1-37.7-64.9c0-41.6,33.8-75.4,75.4-75.4c41.6,0,75.4,33.8,75.4,75.4C575.4,678.6,560.1,702.6,537.7,715.7z"/></g>
</svg>